<svg
  width="24"
  height="24"
  viewBox="0 0 24 24"
  fill="none"
  xmlns="http://www.w3.org/2000/svg"
>
  <defs>
    <linearGradient id="gradient" x1="0" x2="100%" y1="0" y2="100%">
      <stop class="from" offset="0%" />
      <stop class="to" offset="100%" />
    </linearGradient>
    <style>
      :root {
        --latte-teal: #179299;
        --macchiato-teal: #8bd5ca;
      }

      path {
        fill: url(#gradient);
      }

      .from {
        stop-color: var(--latte-teal);
      }

      .to {
        stop-color: var(--macchiato-teal);
      }
    </style>
  </defs>
  <path
    fill-rule="evenodd"
    clip-rule="evenodd"
    d="M8 3C9.10457 3 10 3.89543 10 5V8H16C17.1046 8 18 8.89543 18 10C18 11.1046 17.1046 12 16 12H10V14C10 15.6569 11.3431 17 13 17H16C17.1046 17 18 17.8954 18 19C18 20.1046 17.1046 21 16 21H13C9.13401 21 6 17.866 6 14V5C6 3.89543 6.89543 3 8 3Z"
    fill="currentColor"
  />
</svg>